<svg t="1714621043921" class="icon" viewBox="0 0 1024 1024" version="1.1" xmlns="http://www.w3.org/2000/svg" p-id="5283" width="28" height="28"><path d="M160 0h512l256 256v704c0 35.3472-28.6528 64-64 64H160c-35.3472 0-64-28.6528-64-64V64c0-35.3472 28.6528-64 64-64z" fill="#4CB050" p-id="5284"></path><path d="M400.256 768l114.656-164.5696L630.1632 768H684.8L541.4208 568.4736 674.4768 384H619.84L514.912 533.5104 410.496 384h-54.6176l131.9872 184.4736L345.6 768z" fill="#FFFFFF" p-id="5285"></path><path d="M672 0l256 256h-192c-35.3472 0-64-28.6528-64-64V0z" fill="#B7DFB9" p-id="5286"></path></svg>