<svg t="1716798322670" class="icon" viewBox="0 0 1024 1024" version="1.1" xmlns="http://www.w3.org/2000/svg" p-id="13981" width="200" height="200"><path d="M637.253818 0H152.250182C142.708364 0 133.585455 3.816727 126.836364 10.705455A36.910545 36.910545 0 0 0 116.363636 36.584727v950.830546c0 20.247273 16.058182 36.584727 35.84 36.584727h716.8c9.495273 0 18.618182-3.816727 25.320728-10.705455a36.910545 36.910545 0 0 0 10.519272-25.879272V273.082182L637.207273 0z" fill="#9168F1" p-id="13982"></path><path d="M638.324364 0v238.033455c0 19.362909 15.313455 35.048727 34.304 35.048727h233.285818L638.324364 0z" fill="#BDA8F5" p-id="13983"></path><path d="M395.636364 418.909091m-46.545455 0a46.545455 46.545455 0 1 0 93.090909 0 46.545455 46.545455 0 1 0-93.090909 0Z" fill="#FFFFFF" p-id="13984"></path><path d="M324.701091 682.542545l42.682182-119.808a23.272727 23.272727 0 0 1 34.862545-11.543272l89.088 59.578182a23.272727 23.272727 0 0 0 32.023273-6.05091L621.707636 463.127273a23.272727 23.272727 0 0 1 41.890909 8.471272l45.940364 216.901819A46.545455 46.545455 0 0 1 664.017455 744.727273H368.546909a46.545455 46.545455 0 0 1-43.845818-62.184728z" fill="#FFFFFF" p-id="13985"></path></svg>