<svg t="1714621105410" class="icon" viewBox="0 0 1024 1024" version="1.1" xmlns="http://www.w3.org/2000/svg" p-id="5961" width="28" height="28"><path d="M160 0h512l256 256v704c0 35.347-28.653 64-64 64H160c-35.347 0-64-28.653-64-64V64c0-35.347 28.653-64 64-64z" fill="#F6AD00" p-id="5962"></path><path d="M258.528 742.067l93.306-137.139a14.502 14.502 0 0 1 22.17-2.182l61.663 60.416 135.296-212.064a14.502 14.502 0 0 1 24.807 0.556l168.102 291.328a14.502 14.502 0 0 1-12.57 21.767H270.528a14.502 14.502 0 0 1-12.006-22.682z" fill="#FFF7F7" p-id="5963"></path><path d="M286.47 431.546a73.146 73.146 0 1 0 146.292 0 73.146 73.146 0 1 0-146.292 0z" fill="#FFFFFF" p-id="5964"></path><path d="M672 0l256 256H736c-35.347 0-64-28.653-64-64V0z" fill="#FBDE99" p-id="5965"></path></svg>