<svg t="1714621130594" class="icon" viewBox="0 0 1024 1024" version="1.1" xmlns="http://www.w3.org/2000/svg" p-id="6139" width="28" height="28"><path d="M160 0h512l256 256v704c0 35.347-28.653 64-64 64H160c-35.347 0-64-28.653-64-64V64c0-35.347 28.653-64 64-64z" fill="#7C8EEE" p-id="6140"></path><path d="M702.298 579.29L403.73 757.274c-19.949 12.019-45.331-2.413-45.331-25.856V375.45c0-22.848 25.382-37.274 45.331-25.856l298.56 177.984c19.341 12.032 19.341 40.288 0 51.712z" fill="#FFFFFF" p-id="6141"></path><path d="M672 0l256 256H736c-35.347 0-64-28.653-64-64V0z" fill="#CAD1F8" p-id="6142"></path></svg>